<?xml version="1.0" encoding="UTF-8" standalone="no"?>
<svg
   height="512"
   version="1.2"
   width="512"
   id="svg6"
   sodipodi:docname="all_hatched.svg"
   xml:space="preserve"
   inkscape:version="1.2.2 (b0a8486541, 2022-12-01)"
   xmlns:inkscape="http://www.inkscape.org/namespaces/inkscape"
   xmlns:sodipodi="http://sodipodi.sourceforge.net/DTD/sodipodi-0.dtd"
   xmlns="http://www.w3.org/2000/svg"
   xmlns:svg="http://www.w3.org/2000/svg"><sodipodi:namedview
     id="namedview8"
     pagecolor="#ffffff"
     bordercolor="#000000"
     borderopacity="0.25"
     inkscape:showpageshadow="2"
     inkscape:pageopacity="0.0"
     inkscape:pagecheckerboard="0"
     inkscape:deskcolor="#d1d1d1"
     showgrid="false"
     inkscape:zoom="2.0058594"
     inkscape:cx="278.43427"
     inkscape:cy="255.75073"
     inkscape:window-width="2560"
     inkscape:window-height="1369"
     inkscape:window-x="-8"
     inkscape:window-y="-8"
     inkscape:window-maximized="1"
     inkscape:current-layer="svg6"><inkscape:grid
       type="xygrid"
       id="grid2334"
       originx="0"
       originy="0" /></sodipodi:namedview><defs
     id="defs2" /><path
     d="M 6.9866653,468.18909 3,472.17576 M 44.51948,498.53853 37.058008,506 m 25.980346,-48.60776 -6.180706,6.1807 M 66.842712,498.84271 59.685425,506 m 27.562702,-50.19012 -22.231553,22.23155 m 8.448503,14.17892 -4.190907,4.1909 M 89.695947,498.6169 82.312842,506 M 91.437923,134.83625 89.5,136.77417 m 9.394709,330.01655 -6.940742,6.94074 m 2.021443,20.60597 -1.595494,1.5955 m 21.381824,-89.26408 -11.11686,11.11686 m 10.69538,79.81429 -8.4,8.4 m 15.68689,-38.31431 -10.37688,10.37688 m 11.42336,-350.83461 -6.64225,6.64225 m 2.27101,359.76766 -1.47085,1.47085 m 13.94387,-36.57129 -7.03169,7.03169 M 136.09023,497.47744 127.56768,506 m 34.36511,-56.99253 -32.58058,32.58058 m 22.80121,-294.33021 -22.26091,22.2609 m 2.37413,-160.76604 -0.41345,0.413444 m 4.59819,334.813076 -1.08151,1.0815 m 5.76661,-254.6682 -3.65704,3.65704 m 17.02899,231.8726 -15.79884,15.79884 m 5.55681,-322.340651 -3.6609,3.660903 M 157.23086,114.29814 144.029,127.5 m 46.10635,315.93232 -41.49671,41.49672 m 6.8683,-414.161811 -5.70954,5.70954 m 11.45343,418.467491 -6.64542,6.64542 m 11.88867,-419.18217 -9.72738,9.727375 m 34.03725,56.472425 -32.22983,32.22983 m 18.04844,-85.930694 -12.70203,12.702034 m 4.44598,40.80885 -1.57715,1.57714 m 7.40545,-30.03286 -0.69481,0.69481 m 2.65346,223.62071 -1.90824,1.90824 M 179.5,114.65642 l -4.53839,4.53839 m 2.59937,359.4393 -1.66466,1.66466 m 7.16871,-7.16871 -4.88415,4.88415 m 7.7164,14.91102 -5.6462,5.6462 m 12.03729,-374.07596 -10.2929,10.2929 m 20.00272,-42.630141 -19.56643,19.566431 m 3.12625,245.77534 -2.666,2.66599 m 2.9129,110.2242 -2.56104,2.56104 m 10.77493,-101.2846 -9.30758,9.30757 M 224.63411,431.56098 186.19509,470 m 9.24241,-416.535913 -6.12173,6.121729 m 9.80214,12.825275 -9.28458,9.28458 M 201.5,160.53867 l -6.12741,6.12741 m 8.89414,307.8897 -2.77755,2.77755 m 10.7211,-304.87752 -8.61557,8.61557 m 22.06794,-44.69536 -19.09934,19.09934 m 75.08171,241.70213 -74.1216,74.1216 m 2.75162,19.8758 -2.19183,2.19183 m 5.18071,-186.20005 -4.08333,4.08333 m 5.89486,16.73256 -5.61677,5.61677 m 8.86876,-144.63326 -6.55879,6.55879 M 243.73897,73.044869 216.3342,100.44964 m 8.32718,104.8099 -3.0754,3.07541 m 9.69674,103.44034 -7.40162,7.40162 m 15.62311,-174.01503 -8.85936,8.85936 m 12.58187,168.43747 -4.82035,4.82035 m 80.19353,55.57096 -76.97013,76.97013 m 11.58578,-305.74219 -5.77559,5.77559 M 258,466.07734 l -2.98406,2.98406 m 6.47301,-6.47301 -2.41728,2.41729 m 8.51447,-302.6709 -6.11842,6.11842 m 72.44296,221.71347 -67.99245,67.99244 m 15.09936,-286.62836 -3.76507,3.76507 m 10.01908,125.74542 -7.97719,7.97719 M 310.5,458.83218 l -1.71893,1.71893 m 52.4606,-75.08801 -51.52104,51.52103 m 38.85538,6.39946 -13.23027,13.23026 m 52.00065,-29.37323 -19.55437,19.55437 m 26.92773,-388.966402 -1.98151,1.981514 m 42.04283,342.623248 -19.19283,19.19284 m 52.93586,-30.30844 -21.30744,21.30743 m 44.46997,-21.84255 -5.10165,5.10165 M 17,469.48947 16.149109,470.34036 M 33.366449,498.37785 25.744299,506 M 54.557575,499.81414 48.371716,506 M 71.584807,460.15949 59.87215,471.87215 m 29.277344,-6.64993 -27.054856,27.05486 m 17.19846,5.42896 L 70.999133,506 M 102.97593,496.65062 93.62655,506 m 8.17682,-53.43165 -7.68034,7.68034 m 18.43156,4.19585 -13.258572,13.25858 m 9.689522,-349.10078 -6.65815,6.65815 m 10.20459,261.32441 -1.96297,1.96297 M 123.06746,499.18651 116.25397,506 m 22.46297,-45.09039 -17.93853,17.93853 m 10.10634,-100.61601 -6.52053,6.52053 M 137.77148,122.44382 127.4653,132.75 m 4.66842,357.37025 -2.67712,2.67712 m 10.05213,-123.18921 -5.10185,5.10185 m 4.07495,-320.8588 -2.26698,2.266988 M 149.78345,495.09793 138.88138,506 m 37.18608,-59.81349 -36.43254,36.43254 m 9.82528,-417.118787 -4.14047,4.140471 M 150.62655,449 145.7304,453.89616 M 151.34271,131.5 l -1.74156,1.74156 m 29.59407,15.66077 -29.50807,29.50806 m 11.25324,-101.762897 -6.73605,6.736048 M 205.45766,439.42372 159.88138,485 M 172.00409,88.211201 160.56341,99.65189 m 21.50507,1.12234 -21.01384,21.01384 m 6.90124,15.72618 -6.19269,6.19269 m 7.92187,240.97971 -5.45205,5.45206 M 169.2443,362.5 l -4.7671,4.7671 m 7.7772,127.9873 -5.7368,5.7368 m 15.45393,-377.4926 -4.02292,4.02292 m 6.77364,-6.77364 -1.22365,1.22365 m 6.41762,219.85655 -5.19052,5.19052 m 6.6008,-210.24756 -2.92797,2.92798 m 9.92575,-77.808008 -9.66383,9.66383 M 200.82506,82.017653 189.5,93.342712 m 6.28102,265.247988 -5.81688,5.81688 m 5.29479,-208.94154 -5.06961,5.0696 M 194.0088,473.5 l -3.63173,3.63173 M 203.20731,102.26282 191.5,113.97013 m 1.21214,-69.094395 -0.93965,0.939651 m 7.52363,445.024714 -5.91471,5.91471 m 61.13619,-83.76361 -58.66008,58.66009 m 7.24045,-346.65172 -4.83866,4.83867 m 12.90736,32.34747 -11.59293,11.59293 m 19.48338,-42.1108 -13.28695,13.28696 m 9.60782,35.64701 -7.6918,7.69179 m 9.11597,149.27595 -4.73006,4.73007 m 8.71232,-234.98649 -5.28442,5.28442 m 5.56382,84.94585 -4.93493,4.93492 m 16.35191,-61.60674 -9.66333,9.66333 m 5.83955,175.17979 -4.99377,4.99377 m 2.97297,132.79153 -1.38092,1.38092 m 0.91579,-249.81738 -0.45022,0.45022 m 7.22075,241.68084 -2.21996,2.21996 m 8.20141,14.426 -5.79754,5.79755 m 0.44258,-23.07 L 233.13622,457 m 69.0454,-69.04541 -67.80744,67.80744 m 27.6799,-412.345978 -23.23304,23.233033 m 8.59409,81.915585 -8.28368,8.28368 m 17.17771,163.84162 -4.30192,4.30193 m 80.96479,54.79971 -80.89341,80.8934 m 8.16297,-302.31939 -6.013,6.01301 m 13.05164,145.34027 -2.61356,2.61357 m 9.83962,-145.60413 -5.10228,5.10228 m 0.76266,293.39377 -0.42829,0.42828 m 3.86119,-3.86118 -0.58374,0.58374 m 75.57075,-75.57076 -67.95195,67.95195 m 5.78118,-277.31019 -0.99899,0.999 M 311.58138,333.3 l -0.4,0.4 m 6.2448,-51.49963 -2.93226,2.93226 m 10.96291,170.05642 -1.70683,1.70684 m 17.75,-108.25967 -3.31005,3.31005 M 368.89131,434.38199 348.7733,454.5 m 6.7267,-51.98153 -5.56666,5.56666 M 357.12655,242.5 l -1,1 m 6.87574,61.00652 -5.27255,5.27254 m 20.10359,-65.35843 -2.66324,2.66324 m 37.81843,165.82833 -14.92313,14.92313 m 55.58398,-32.95656 -23.97193,23.97193 M 480.65555,390.5 469.25367,401.90188 M 470.97619,332.29711 469.7733,333.5 M 13.218344,467.61427 9.593892,471.23872 m 56.457575,-11.20274 -5.745246,5.74524 m 14.019822,-2.70611 -10.525228,10.52523 m 18.637729,-7.32402 -14.701521,14.70152 m 2.308379,9.00533 -1.177563,1.17756 m 23.327398,-23.3274 -3.405982,3.40599 m 11.310235,0.003 -2.742919,2.74292 m 4.642839,-15.95655 -0.47084,0.47084 m 8.07966,-53.33449 -1.03499,1.03499 m 4.67427,-276.20328 -3.25667,3.25667 m 13.76973,336.95524 -6.83144,6.83144 m 27.85298,-16.53927 -18.57878,18.57877 M 140.19057,499.03396 133.22453,506 m 29.50371,-52.13113 -27.22865,27.22865 M 137.11115,128.761 135.5,130.37215 m 5.30487,-73.187126 -1.35265,1.352655 m 6.2108,5.102911 -1.62983,1.629831 m 8.24139,410.365819 -5.90114,5.90114 m 5.53371,-412.827214 -3.51555,3.515554 m 5.50721,424.41371 -4.89472,4.89472 m 8.32011,-426.927327 -4.15528,4.155284 m 5.58768,401.705823 -2.81792,2.81792 m 7.09924,-403.079039 -4.917,4.916999 m 8.03981,376.62629 -5.58401,5.584 m 5.78008,28.16105 -4.6595,4.6595 m 31.70841,-54.33583 -27.90633,27.90633 m 2.75787,-364.79654 -2.21168,2.21168 m 2.40247,31.53866 -2.27349,2.27349 m 2.10826,-58.676809 -2.07774,2.07774 m 8.51083,364.841549 -5.59726,5.59726 m 5.88189,16.74553 -3.41271,3.41271 m 6.14686,-96.65653 -0.67607,0.67607 m 32.579,57.93067 L 178.03824,472.5 m 10.70153,-112.5249 -1.4314,1.43139 m 2.53993,133.22458 -1.63196,1.63195 m 4.72113,-445.955762 -2.49205,2.492057 m 5.41116,5.902543 -5.27961,5.279609 m 6.78456,4.529148 -6.32863,6.328632 m 7.39832,3.915395 -6.95751,6.957507 m 4.03031,75.165651 -0.79289,0.79289 M 197.3824,91.117167 195.49957,93 m 28.42317,344.92921 -26.78042,26.78042 m 2.1198,-375.472183 -1.26313,1.263128 m 1.91867,77.277295 -0.97889,0.97889 m 5.70961,5.6041 -2.0631,2.06309 M 205.05727,468.10838 203.16566,470 m 37.93825,-37.93825 -34.73152,34.73152 m 3.41541,-286.25813 -3.25624,3.25625 m 7.98387,3.32984 -4.18112,4.18111 m 2.79151,144.2867 -0.29192,0.29192 m 5.36848,-141.13298 -3.19562,3.19562 m 6.53374,4.77997 -2.21017,2.21017 m 31.62742,228.58788 -21.60506,21.60506 M 243.61213,67.514859 229.69728,81.429705 m 26.80457,357.861515 -14.59506,14.59506 m 6.90981,-301.06623 -0.60138,0.60139 m 6.85227,4.46143 -2.36376,2.36376 m 19.79748,274.35894 -19.60609,19.60609 m 9.83197,-292.67468 -4.22082,4.22082 m 28.52533,265.63109 -24.28546,24.28546 m 7.69494,-290.53765 -4.35318,4.35318 m 8.83109,138.24712 -3.86587,3.86587 m 5.8168,-141.5813 -2.57488,2.57487 m 64.68529,218.15743 -61.27289,61.27289 m 75.71507,-64.40136 -49.95153,49.95152 m 33.42422,-22.11051 -4.49835,4.49835 m 13.23725,32.01758 -0.0265,0.0265 m 3.84705,-3.84705 -0.33822,0.33822 m 21.99324,-203.01258 -3.59087,3.59087 m 15.74268,187.90408 -0.5598,0.55979 m 79.17767,-33.92283 -0.3722,0.3722 m 22.85138,-11.53768 -1.6157,1.61571"
     fill="none"
     stroke="black"
     id="path4"
     style="stroke:#e0be00;stroke-opacity:1;stroke-width:2;stroke-dasharray:none;stroke-linecap:round" /><path
     d="M 69.872904,382.67499 2.9995536,449.54834 M 115.42055,382.38217 6.0820136,491.72071 M 57.516784,417.65852 11.072604,464.10271 M 57.116984,463.31316 14.430144,506 m 50.84586,-28.21844 -11.1875,11.1875 M 121.1833,353.99201 58.926894,416.24842 m 42.250576,3.00425 -37.640556,37.64057 m 27.34923,17.9056 -17.49165,17.49165 M 118.4898,424.56775 93.160134,449.89743 m 16.614176,28.64065 -10.887976,10.88799 m 14.947236,-37.57467 -7.52155,7.52156 M 154.93497,410.75 118.34931,447.33566 m 20.13923,-88.02148 -19.91843,19.91843 m 11.61511,11.01231 -10.44727,10.44727 m 9.42925,81.08042 -9.07405,9.07405 m 21.82014,-89.70239 -20.99371,20.99371 m 31.55544,-76.81027 -10.83812,10.83812 m 37.23235,53.27732 -36.86014,36.86013 M 154.55317,501.64147 150.19464,506 m 27.11025,-140.24733 -23.09213,23.09212 m 9.22809,13.39934 -3.42339,3.42339 m 9.1556,-54.41044 -8.77068,8.77068 m 41.30236,49.2073 -35.8957,35.89571 m 2.53521,42.71962 -2.25703,2.25703 M 178.34843,387.33655 166.98798,398.697 m 13.14658,99.9905 -7.3125,7.3125 m 14.64585,-105.15552 -4.37138,4.37138 m 15.66066,74.84901 -8.84186,8.84186 m 6.43449,-96.94416 -5.55255,5.55255 m 10.71582,34.53902 -6.96102,6.96101 M 208.02164,493.42783 195.44948,506 m 11.00034,-124.13743 -3.32533,3.32533 m 5.4313,85.07837 -4.51206,4.51206 m 90.37487,-135.6297 -89.31609,89.31609 m 14.10071,-36.72813 -11.18376,11.18376 m 2.10449,-24.73191 -1.2197,1.2197 m 1.47609,-24.10351 -0.67454,0.67455 m 12.87974,-12.87974 -10.24394,10.24394 m 17.05622,5.57119 -16.08208,16.08208 M 253.44849,470.6284 218.07689,506 m 4.6763,-27.30372 -1.80901,1.80901 m 10.74228,-101.25194 -7.536,7.536 m 9.48231,-54.73715 -7.81661,7.81661 m 36.17612,-13.5487 -31.40765,31.40765 m 11.46911,101.66798 -11.05102,11.05101 M 267.07193,343.86788 236.5946,374.3452 M 282.92748,463.77684 240.70431,506 m 34.84097,-125.35064 -33.63993,33.63993 m 23.2172,-113.72687 -14.92072,14.92072 M 309.53891,459.79282 263.33173,506 m 11.38845,-192.40779 -0.48935,0.48935 m 34.69979,-12.07237 -34.08365,34.08364 m 0.48774,-23.11515 -0.0558,0.0558 m 16.60024,51.28201 -11.54749,11.54749 M 334.159,457.80014 285.95914,506 m 48.05721,-161.19429 -46.66582,46.66582 m 12.97298,54.90927 -9.95757,9.95757 m 6.16893,-164.56085 -4.59384,4.59384 m 26.44399,41.43826 -21.62622,21.62622 m 89.42848,-112.05589 -81.76234,81.76234 M 367.02682,447.55974 308.58656,506 m 7.86283,-211.50958 -6.34112,6.34112 m 55.63781,102.7541 -49.41458,49.41459 m 3.84519,-162.23711 -0.46161,0.46161 m 7.26142,-7.26142 -5.52427,5.52427 m 15.55545,74.95422 -12.07293,12.07293 m 18.66897,-63.9238 -17.6662,17.66619 M 409.60367,427.61031 331.21398,506 m 25.57721,-251.85138 -22.27173,22.27173 M 505.99955,218.07734 338.92439,385.1525 M 479.79635,221.65308 344.67044,356.77904 m 24.66987,-47.29729 -23.15775,23.15775 m 13.83595,-36.46337 -9.13168,9.13168 M 445.17504,414.66635 353.8414,506 m 15.4413,-83.32356 -12.0256,12.0256 m 34.73092,-238.37767 -31.53944,31.53945 m 16.34829,142.04362 -15.13011,15.13011 m 19.77321,-110.28288 -18.57106,18.57106 m 22.53292,-67.78775 -16.2971,16.2971 m 54.18203,-99.43687 -49.90858,49.90858 m 15.77588,210.4983 -14.97269,14.97268 m 5.90931,-28.53672 -5.14996,5.14996 M 481.49255,400.97626 376.46881,506 M 505.99955,172.82251 377.34974,301.47232 M 452.65684,90.400717 380.58473,162.47282 M 505.99955,263.33218 381.51383,387.8179 m 76.33221,-98.95963 -76.16618,76.16618 M 445.8964,74.533744 384.46974,135.9604 m 60.1858,30.32387 -57.30323,57.30322 M 505.99955,150.19509 387.6217,268.57294 M 505.99955,127.56768 389.03675,244.53047 M 443.10899,54.693734 391.16854,106.63419 m 11.93846,78.57121 -8.69207,8.69206 M 505.99955,285.95959 396.3785,395.58064 M 442.58976,32.585549 396.57603,78.599279 M 505.99955,399.09668 399.09623,506 M 449.54789,3 400.59535,51.952537 m 7.82707,354.211603 -7.38456,7.38457 m 17.44265,-243.71683 -13.06208,13.06209 m 48.53303,177.74114 -44.3997,44.39969 m 0.81828,-385.484365 -0.64901,0.649004 M 426.92047,3 413.61734,16.303131 M 423.88666,503.83698 421.72365,506 m 20.36525,-359.7765 -19.88385,19.88384 m 44.16029,-66.787701 -38.687,38.687001 m 78.32121,283.71746 -77.18445,77.18445 m 23.38367,-113.89334 -12.27036,12.27036 M 452.47168,497.87939 444.35106,506 m 29.48538,-391.52405 -27.52412,27.52412 M 470.26325,27.539479 446.67669,51.126037 m 59.32286,53.814223 -58.1685,58.1685 m 58.1685,-148.678169 -57.84457,57.844575 m 10.36745,-55.622293 -6.20032,6.200328 m 2.42702,65.455224 -0.54061,0.54061 m 50.04443,221.484575 -48.86951,48.86951 m 50.61611,85.14839 -49.71321,49.71321 m 9.53441,-122.67149 -8.75977,8.75977 m 23.15087,-113.66054 -19.63401,19.63401 M 472.17531,3 461.49522,13.680085 m 44.50433,23.377923 -39.31744,39.317443 M 505.99955,466.97893 466.97848,506 m 39.02107,-174.78557 -35.15532,35.15531 M 494.80275,3 471.82692,25.975805 M 491.65795,368.1834 475.4919,384.34949 m 30.50765,-302.036648 -27.1409,27.140878 m 12.5745,-35.201899 -11.1416,11.141561 m 10.761,125.003508 -8.3849,8.38493 m 23.3319,21.92294 -22.3067,22.30666 M 505.99955,489.60635 489.60585,506 m 16.3937,-310.55007 -13.8524,13.85236 m 13.8524,167.16697 -12.111,12.111 m 12.111,-34.73841 -11.1674,11.16743 m 11.1674,-305.323855 -10.2022,10.202214 M 44.040244,397.19394 2.9995536,438.23463 m 18.4680904,4.15933 -18.4680904,18.46809 m 9.6791304,12.94828 -9.6791304,9.67914 M 16.976574,492.13986 3.1164336,506 m 19.5608104,-19.5608 -3.89899,3.89899 m 75.97984,-121.23468 -68.6464,68.6464 m 19.22436,26.03048 -9.03698,9.03698 m 22.1708,0.45661 -22.11226,22.11226 M 128.41211,358.07691 41.600674,444.88834 m 38.82177,-16.19435 -28.55187,28.55187 m 27.19869,-4.57127 -5.47035,5.47035 m 17.39018,-17.39019 -6.84038,6.84039 m 4.03738,-26.6648 -2.7085,2.7085 m 9.37603,58.50623 -5.66041,5.6604 m 20.500406,-65.75524 -15.008476,15.00848 m 6.238156,-74.12041 -3.614996,3.615 m 16.871916,73.63774 -8.68697,8.68698 m 6.63285,38.62198 -3.37624,3.37624 m 19.84084,-65.09567 -10.06214,10.06213 m 30.22531,-52.85272 -27.66509,27.66509 m 18.55791,26.69692 -15.75874,15.75875 m 20.10012,-42.72754 -11.83414,11.83414 m 2.3331,-70.21535 -2.13295,2.13294 m 35.00797,55.5017 -22.71903,22.71903 m 3.82585,-71.7081 -2.52127,2.52127 m 42.95979,47.54988 -33.03848,33.03848 m 2.63902,42.61581 -2.40477,2.40478 m 6.60952,-142.37402 -3.46585,3.46584 m 25.67908,132.71284 -6.08428,6.08429 m 14.42811,-104.93778 -12.40742,12.40741 m 18.33644,26.9184 -18.05305,18.05305 m 18.86284,-86.7451 -1.14313,1.14314 m 9.89535,125.86915 -2.80481,2.80481 m 5.92541,16.70201 L 206.76319,506 m 20.30367,-110.81335 -18.52564,18.52565 m 21.09014,1.53728 -17.42773,17.42773 M 217.76319,495 l -4.76364,4.76364 m 8.99617,-31.62359 -6.65426,6.65426 m 16.05776,-106.56743 -14.4981,14.4981 m 7.23358,-29.861 -7.09044,7.09045 m 28.79485,-28.79486 -17.07404,17.07404 M 267.55066,467.83995 229.3906,506 m 7.58966,-120.72674 -6.21857,6.21857 m 12.57122,10.0562 -8.31741,8.3174 m 31.67672,-76.93155 -31.29358,31.29358 m 11.99554,-57.25037 -8.8404,8.8404 m 7.31707,60.56518 -3.78334,3.78334 m 16.25761,6.36981 -11.41095,11.41094 m 6.19642,-28.82383 -4.04888,4.04888 M 293.3153,464.70271 252.01802,506 m 17.76565,-153.53015 -12.51632,12.51631 m 17.62079,5.00663 -12.61711,12.61712 m 15.63123,6.99618 -13.10919,13.10919 m 14.11003,-104.61969 -5.62853,5.62852 m 19.68203,2.94539 -19.57725,19.57725 M 319.97729,460.66815 274.64544,506 m 11.27458,-147.03909 -7.57691,7.57692 m 41.91384,-19.28643 -34.43598,34.43598 m 16.04181,-38.66922 -12.93066,12.93066 M 346.5765,456.69635 297.27285,506 m 32.13584,-213.15517 -29.6607,29.6607 m 25.16562,110.59888 -21.04725,21.04725 m 2.65975,-115.79684 -1.47049,1.47049 m 3.98549,-49.24032 -3.40507,3.40508 m 16.11471,74.39495 -12.8692,12.8692 m 27.29076,-72.54559 -19.87627,19.87627 M 383.80099,442.09928 319.90027,506 m 13.34865,-149.11315 -7.37849,7.37849 m 28.79668,-96.67894 -18.02128,18.02129 m 4.79969,40.45515 -3.6665,3.66649 m 2.51716,42.73767 -0.50667,0.50668 m 43.7523,24.12994 -41.81328,41.81329 M 423.73854,424.78915 342.52769,506 m 28.15564,-186.54756 -25.19321,25.19321 m 13.23405,9.39336 -10.79692,10.79693 m 0.72986,-113.86695 -0.35927,0.35927 m 2.20059,-2.20059 -0.52989,0.52989 m 6.52155,38.73328 -5.66393,5.66393 m 3.05773,87.45194 -2.20733,2.20733 m 23.20745,-23.20745 -15.6764,15.6764 m 16.86657,-152.63107 -15.65607,15.65607 m 8.67039,-31.2978 -7.68469,7.68469 m 11.54379,124.22071 -8.83963,8.83963 M 462.18103,408.97407 365.1551,506 m 18.37818,-222.02493 -16.39302,16.39303 m 10.66846,-33.29588 -8.99504,8.99504 m 9.49295,103.64413 -3.00214,3.00214 m 30.60793,-75.86276 -29.26578,29.26577 m 21.35512,69.15455 -20.68813,20.68813 m 39.49973,-107.38198 -38.71288,38.71289 m 77.2324,-122.48724 -75.71464,75.71464 m 4.80131,-95.31098 -4.65728,4.65728 m 7.43206,15.19536 -6.34756,6.34756 m 1.08642,21.541 -0.71656,0.71655 m 56.93686,-147.44652 -56.19219,56.19219 m 31.28703,-53.91445 -30.47492,30.47492 m 4.82984,221.44433 -1.53496,1.53496 m 6.25151,-187.27085 -6.05405,6.05405 M 497.12315,396.65934 387.78252,506 m 69.21425,-295.48842 -68.93315,68.93315 m 6.77778,-29.40519 -6.22349,6.22348 m 9.03872,-54.29355 -8.23389,8.23389 m 66.04027,92.35165 -65.38882,65.38881 m 75.66452,-211.42901 -75.1763,75.1763 m 6.34199,152.04993 -5.87653,5.87653 m 12.94266,-284.47166 -10.32242,10.32241 m 8.68311,-53.937941 -7.27785,7.277849 m 47.46988,-24.842465 -46.88046,46.880463 m 68.55304,89.838884 -68.54389,68.54389 m 16.96124,118.80325 -11.15514,11.15514 m 48.51937,-25.89194 -47.84756,47.84755 m 16.50361,-242.77778 -15.03436,15.03436 m 3.37052,-116.507597 -3.36446,3.364456 m 11.84079,-34.468209 -9.36336,9.363363 m 29.878,38.00425 -29.54386,29.543857 M 454.328,258.43519 409.61642,303.14677 M 412.70999,503.69995 410.40994,506 M 442.3291,21.5325 412.21969,51.641909 m 23.1861,112.578401 -22.99555,22.99555 M 436.62754,95.116314 414.15285,117.591 m 39.8053,209.09629 -36.52303,36.52303 M 427.62117,13.613011 417.54653,23.687655 m 88.45302,386.722735 -86.39818,86.39818 m 31.95838,-122.46805 -29.26531,29.26531 m 19.73763,-110.2473 -19.25656,19.25656 M 438.23418,3 l -7.61819,7.618193 m 3.58472,132.179777 -3.26549,3.26549 M 437.71175,501.3256 433.03736,506 m 14.44254,-376.48122 -11.13081,11.13081 m 10.65438,-55.909207 -6.3826,6.382601 m 14.81014,188.836606 -11.23126,11.23126 m 4.7679,-253.669482 -2.19786,2.197854 m 59.22976,393.318588 -58.72266,58.72265 m 11.04772,-350.45897 -10.31983,10.31983 m 4.45053,-140.215034 -3.76792,3.767922 m 13.16332,99.973762 -9.28643,9.28643 m 7.1308,-52.385633 -6.10348,6.103478 M 460.8616,3 454.93322,8.9283795 M 460.11206,501.55271 455.66477,506 m 9.97043,-417.263932 -7.81654,7.816535 m 8.99177,239.909827 -8.38231,8.3823 m 47.57143,-70.19884 -47.51232,47.51232 m 18.33886,-86.22112 -18.0647,18.0647 m 41.17036,-63.79775 -40.67133,40.67131 m 5.17323,130.59127 -4.76635,4.76635 m 40.43425,-108.31655 -40.42544,40.42549 m 16.94366,73.56601 -16.32179,16.32178 m 1.71947,-114.85654 -1.6358,1.63579 m 0.94783,225.32634 -0.11395,0.11395 M 486.12475,181.3836 462.5932,204.91515 m 1.58053,-182.599863 -0.0311,0.03109 m 3.80244,109.334643 -2.93919,2.93919 m 2.62226,-25.24967 -1.70467,1.70468 m 10.00146,148.39045 -9.5567,9.55669 m 36.56242,-127.07208 -34.46191,34.4619 M 505.99955,25.744299 469.33587,62.40798 m 24.82458,-2.197145 -24.49605,24.49603 m 36.33515,370.958355 -36.30512,36.30513 m 34.04612,-373.45741 -33.77728,33.77731 m 24.93648,178.71026 -22.7302,22.73021 M 483.48905,3 472.25745,14.231565 m 33.7421,283.041735 -32.37634,32.37634 M 505.99955,3.1168825 474.53702,34.579408 m 31.46253,59.047142 -30.28783,30.28783 m 8.45843,376.2077 -5.878,5.87792 m 8.9419,-416.235367 -8.6649,8.664942 m 4.6488,153.743085 -3.3706,3.37063 m 10.4611,-33.08852 -9.3805,9.38045 m 25.0716,133.32033 -21.4658,21.46576 m 15.1075,-37.73483 -14.4009,14.40081 m 20.7592,-133.89624 -18.9983,18.99829 m 18.9983,-86.88054 -18.3237,18.32373 m 18.3237,298.46011 -15.3857,15.38574 m 15.3857,-422.679247 -9.3071,9.307093 m 3.8064,245.095214 -3.671,3.67095 m 9.1717,171.84767 -5.0799,5.07994 m 5.0799,-299.23636 -4.087,4.08704 m 4.087,-71.9693 -1.5871,1.58712 m 1.5871,247.31447 -1.0654,1.06536 m 1.0654,-136.82986 -0.5276,0.52763 m 0.5276,67.35462 -0.3214,0.32139 M 29.897964,405.67937 2.9995536,432.57778 M 53.166994,393.72405 2.9995536,443.89149 M 19.811444,438.3933 2.9995536,455.20519 m 0.84769,44.40715 -0.84769,0.84769 M 19.213924,472.93195 3.4975836,488.64829 M 24.541994,444.97646 6.5607836,462.95767 M 45.934904,468.83838 8.7732936,506 m 4.2209304,-15.53464 -3.9886304,3.98863 M 35.546074,467.91351 16.540574,486.919 m 60.42664,-105.68147 -55.78811,55.78811 M 123.80674,357.02542 21.293224,459.53894 m 33.15631,-44.47002 -25.21676,25.21676 m 21.61925,34.9493 -21.17535,21.17534 m 5.38763,-39.32876 -5.38318,5.38319 m 50.60937,-39.29566 -36.05371,36.05371 m 12.46335,21.47778 -6.81552,6.81551 M 131.51172,360.63414 54.783364,437.36251 M 107.3487,362.16976 56.190614,413.32785 m 23.88216,21.37267 -19.6412,19.64119 m 20.30195,-8.98823 -11.0635,11.06349 m 17.36506,-39.99247 -2.97806,2.97805 m 8.13417,3.17955 -5.33811,5.33811 m 0.96175,10.35195 -0.45814,0.45814 m 6.05233,5.26139 -4.20045,4.20045 m 15.384286,-26.69801 -13.670226,13.67023 m 17.041856,-39.66927 -10.987086,10.98709 m 12.144826,21.79629 -8.6297,8.6297 m 7.07826,4.23545 -1.46676,1.46677 m 25.58257,-14.26886 -11.23142,11.23141 m 18.402,-7.08829 -18.36752,18.36752 m 2.55794,-25.18536 -1.73486,1.73487 M 125.9007,411.5 l -3.91442,3.91442 m 15.4505,-4.13679 -7.75464,7.75465 m 8.97814,2.33556 -1.56571,1.56571 m 2.11842,20.509 -1.59426,1.59426 m 3.41834,-82.6143 -1.48415,1.48414 m 5.49,51.07855 -0.81862,0.81862 m 15.17323,7.45419 -14.21771,14.2177 m 6.13732,-17.45102 -4.09858,4.09858 m 22.60235,0.0251 -18.53214,18.53213 M 183.78295,421.5 162.71076,442.57219 m 8.8632,-31.49061 -0.0311,0.0311 m 4.66654,74.52942 -2.01063,2.01062 m 7.35779,-52.61262 -6.116,6.116 m 13.03793,43.53062 -0.99584,0.99584 m 6.91593,-74.79818 -1.28969,1.28969 m 4.92975,17.69766 -3.52971,3.52971 m 7.04988,49.51866 -0.91077,0.91077 m 7.24416,-97.75383 -1.12724,1.12725 m 12.0679,33.18693 -10.38544,10.38544 m 3.83298,-15.14669 -2.75476,2.75476 m 1.33556,-12.64927 -0.72636,0.72636 m 7.05498,-52.30981 -1.96994,1.96994 m 5.94632,16.6811 -4.45626,4.45626 m 8.94051,2.37319 -3.37565,3.37566 m 12.36047,-1.04677 -5.23659,5.23659 m 0.6756,-45.93043 -0.0501,0.0501 m 4.15463,7.15908 -2.78671,2.7867 m 6.33345,38.92139 -4.08935,4.08935 m 6.99458,-40.93571 -5.5749,5.5749 m 8.16464,48.40391 -7.3877,7.3877 m 5.23814,-16.55185 -4.92596,4.92596 m 25.60065,-59.54177 -24.08035,24.08034 m 2.5276,-25.15501 -1.73454,1.73454 m 5.11188,28.82924 -3.24863,3.24863 m 10.04685,1.26686 -6.36687,6.36687 m 2.4979,-70.38015 -1.73319,1.73319 m 4.0107,75.18526 -2.47278,2.47278 m 21.74729,-44.3747 -20.82398,20.82397 m 3.24172,-25.86913 -2.44046,2.44045 m 1.69024,-13.00395 -1.51212,1.51213 m 23.88132,44.00093 -23.06277,23.06277 m 28.4261,-17.11239 -23.00064,23.00064 m 18.21859,-40.84601 -12.78726,12.78726 m 10.05123,-21.36493 -7.05511,7.0551 m 6.50727,-63.07581 -2.58119,2.58119 m 5.21912,28.722 -1.62563,1.62563 m 10.46036,-21.77407 -2.9292,2.92921 m 3.87462,41.38021 -3.70283,3.70283 m 9.48527,1.82843 -6.85787,6.85788 m 13.68532,-2.37161 -9.66787,9.66786 m 9.74291,1.57081 -8.53672,8.53672 m 5.89991,-39.84104 -4.95918,4.95918 m 5.60689,-28.23431 -1.39591,1.39592 m 2.67766,-13.99138 -1.18903,1.18904 m 12.58277,32.67206 -10.13874,10.13874 m 3.47544,-14.78915 -0.75193,0.75193 m 19.02792,3.5995 -17.1634,17.1634 m 18.08368,-6.76997 -17.693,17.69299 m 6.06073,-62.62927 -4.82637,4.82637 m 52.56215,-41.24844 -52.2175,52.2175 m 18.68209,37.88645 -18.30416,18.30417 m 8.96601,-88.16197 -1.81466,1.81465 m 1.61848,43.63636 -1.6045,1.6045 m 19.46461,-30.77832 -16.17334,16.17334 m 8.23266,48.33588 -2.68882,2.68882 m 25.79395,-71.04878 -21.06311,21.06311 m 7.21463,26.7265 -3.94593,3.94593 m 7.98972,3.32398 -6.63739,6.63739 m 13.48924,-47.43036 -7.05491,7.05491 M 354.44666,262.15 337.24087,279.35579 m 17.11643,5.51099 -16.96162,16.96163 m 4.32065,74.8753 -0.89487,0.89487 m 11.89972,-125.03681 -11.887,11.88701 m 30.72107,48.47489 -25.56801,25.568 m 6.6638,15.96362 -4.82344,4.82344 m 18.01966,-29.33337 -17.62871,17.62871 m 15.63954,6.98788 -13.99137,13.99137 m 6.20384,-51.45867 -3.34757,3.34756 m 20.04674,36.52181 -19.4263,19.4263 m 6.36638,4.94733 -1.39248,1.39247 m 13.15461,-47.09573 -13.03821,13.03821 m 4.50043,-72.38268 -1.60805,1.60805 m 9.56912,-54.82396 -8.98366,8.98367 m 17.09471,-5.78101 -17.03154,17.03155 m 3.11481,42.14002 -2.80964,2.80964 m 12.42029,78.08938 -10.76948,10.76948 M 365.15554,217.5 l -0.61248,0.61248 m 16.06316,63.13279 -13.62382,13.62382 m 2.51538,-81.71133 -2.49823,2.49823 m 4.71662,131.04788 -4.00199,4.00199 m 8.61103,-99.1207 -8.20844,8.20844 m 7.09665,4.21706 -6.20568,6.20568 m 7.71473,105.42236 -7.08209,7.08209 m 8.85211,-110.67549 -8.71616,8.71615 m 4.8471,17.78033 -2.03936,2.03936 m 11.03132,-90.22729 -6.82481,6.82482 m 23.29795,89.83913 -22.68898,22.68898 m 7.63985,-98.14952 -7.37447,7.37447 m 33.10427,68.71911 -32.68348,32.68348 m 39.52831,-28.2146 -39.52084,39.52084 m 1.09754,-35.03867 -0.79551,0.79551 m 4.25216,-60.8207 -3.61287,3.61287 m 22.51087,79.3125 -21.48224,21.48225 m 73.93412,-130.50266 -73.09358,73.09358 m 30.08789,-165.85239 -28.03243,28.03242 m 25.91492,-37.22863 -25.65719,25.6572 m 33.71486,-11.08745 -33.66205,33.66205 m 26.08936,-60.03049 -23.57683,23.57684 m 6.55095,242.35063 -6.43775,6.43775 m 61.97298,-84.60039 -60.25643,60.25643 m 3.35081,-184.37015 -2.35536,2.35536 m 65.90252,35.92086 -65.5427,65.5427 m 68.50953,-79.82324 -68.27904,68.27904 m 12.79869,-69.36724 -11.91994,11.91994 m 41.7516,-30.43789 -40.96633,40.96634 m 10.3318,23.60932 -10.28634,10.28634 m 2.50115,-59.0697 -0.98904,0.98905 m 63.634,-29.69287 -63.49056,63.49055 m 26.24788,41.63437 -25.05252,25.05252 m 70.14506,-126.7136 -69.91925,69.91925 m 8.64715,115.80364 -8.39686,8.39686 m 10.20406,-259.10564 -10.0155,10.0155 m 3.25538,53.31316 -0.81131,0.81131 M 408.38212,61.136331 397.58827,71.930187 m 50.161,277.936543 -49.25841,49.25841 m 4.26745,-207.91421 -4.165,4.165 m 31.69703,-144.834113 -31.2071,31.2071 m 3.41828,290.738143 -1.99476,1.99477 M 441.05613,62.403446 400.84667,102.6129 M 441.17523,50.970642 402.30076,89.845108 M 412.8315,373.47079 402.70347,383.59882 M 441.58454,16.620201 402.93548,55.269264 m 12.6679,100.469186 -12.30758,12.30758 M 406.75308,504 l -1.75353,1.75353 m 48.6926,-252.33935 -48.33782,48.33782 m 50.1236,6.44495 -49.31673,49.31672 M 417.14028,29.750757 406.27035,40.620691 m 5.59835,152.793559 -4.1086,4.1086 m 45.10816,158.5386 -45.01956,45.01955 m 5.02887,-38.96999 -3.64518,3.64518 m 10.9295,-191.94883 -10.84426,10.84425 m 2.95874,-161.350648 -2.43107,2.431063 m 17.81289,61.383074 -17.81192,17.811911 m 51.92959,83.83492 -50.96895,50.96895 m 22.83337,-124.65675 -20.21978,20.21978 m 18.92393,-41.551342 -18.27562,18.275622 m 39.54087,209.36072 -39.16578,39.16577 M 427.90545,41.613005 416.94943,52.569018 m 36.27704,212.624552 -35.49871,35.49871 m 30.43976,37.44249 -29.7049,29.7049 m 10.96104,-259.86263 -10.77061,10.77061 m 20.23651,172.09654 -18.45081,18.45081 m 2.23423,88.27543 -1.98562,1.98563 M 443.08235,3.8086811 420.76618,26.124857 M 421.75308,489 l -0.75353,0.75353 m 21.85533,-191.56095 -19.99046,19.99045 m 2.53612,-183.55544 -1.1656,1.16559 m 12.47458,32.78025 -11.77808,11.77809 m 25.38686,189.57359 -23.1366,23.13661 m 2.29649,-239.88437 -2.12219,2.12219 m 26.64355,86.49353 -26.16862,26.16862 M 431.06679,491 l -3,3 m 4.51054,-491 -4.26335,4.26335 m 8.04602,71.149935 -5.68109,5.681087 m 16.00744,40.561108 -14.63777,14.63777 m 5.11982,-106.943192 -4.67927,4.679264 m 3.04404,449.504298 -3,3 m 17.56712,-108.07679 -17.29854,17.29854 m 3.26503,98.55835 -1.41987,1.41987 m 13.71847,-398.38456 -13.6516,13.65161 m 5.8209,-17.13462 -5.64767,5.64767 m 6.40138,-62.96992 -4.53027,4.530276 M 439.52054,505.17366 438.69421,506 m 1.87826,-352.60322 -1.26701,1.267 m 3.8267,-83.022655 -1.54513,1.545136 m 12.59202,202.368439 -11.1298,11.1298 m 7.14078,196.50598 -7.0696,7.06959 m 0.88554,-408.179046 -0.49346,0.493459 m 1.09663,55.471907 -0.48564,0.48565 m 10.24392,148.148 -7.17219,7.17219 m 10.37893,-259.280516 -9.85403,9.854026 m 3.52942,64.35283 -2.50437,2.50437 m 1.68444,43.5704 -0.94417,0.94416 m 1.3092,-125.75999 -1.21466,1.214656 M 451.19612,504.8118 450.00792,506 m 3.14038,-172.84601 -2.60644,2.60644 m 8.90605,-201.2391 -8.61375,8.61376 M 455.3805,478 l -4.19047,4.19048 m 5.72158,-413.015092 -5.62725,5.62725 M 455.20474,3 451.92059,6.2841554 m 2.11819,9.1955156 -1.62121,1.62121 m 8.06591,105.071179 -6.93747,6.93746 M 488.69425,456 454.54154,490.15267 m 4.2417,-445.476333 -4.02301,4.023011 m 2.1899,110.947182 -1.81468,1.81468 m 9.38767,-111.211041 -8.79236,8.79236 m 13.69937,280.457051 -11.36947,11.36947 m 2.33014,-239.91802 -2.32063,2.32063 m 47.92938,167.03108 -47.2863,47.2863 m 5.86049,5.45322 -5.82031,5.82031 m 1.4415,-239.029383 -0.87544,0.875443 m 14.14522,200.81524 -13.94493,13.94493 m 2.43369,42.82115 -2.21919,2.21919 m 13.40017,-115.22356 -13.26112,13.26113 m 13.3744,-2.06069 -13.18963,13.18963 m 2.42049,-183.43983 -2.16809,2.168092 M 466.51845,3 460.3563,9.1621571 m 9.82833,363.5240529 -9.45499,9.45498 m 45.26991,-124.46587 -45.21346,45.21347 m 14.42955,-70.9981 -14.21609,14.21609 m 3.90018,-94.40985 -3.81142,3.81142 m 6.42466,344.3003 L 461.32163,506 m 33.17872,-316.02143 -33.00768,33.00767 m 22.07518,45.80712 -22.00365,22.0036 m 3.79635,-196.129394 -3.56299,3.562992 m 2.49939,65.382872 -2.3526,2.35259 m 2.09818,65.78407 -2.04298,2.04298 m 41.8361,-64.46356 -41.0134,41.01344 m 4.75445,-185.773777 -4.30544,4.305432 m 2.27486,9.038851 -1.18286,1.182861 M 467.3805,466 l -3,3 m 0.98909,-329.08664 -0.66465,0.66465 m 41.29461,309.43036 -41.18406,41.18406 m 5.05102,-480.226774 -4.71965,4.719642 m 9.90934,205.051122 -9.08856,9.08856 m 16.18481,-50.1259 -15.78826,15.78823 m 3.40293,188.93011 -1.57323,1.57323 M 503.30675,147.23103 469.0919,181.44589 M 495.69825,53.016114 469.94073,78.773686 m 36.05882,54.450844 -35.61966,35.61967 m 23.30576,169.02723 -23.2342,23.23424 m 35.5481,-329.704516 -35.52731,35.527307 m 7.83111,275.011639 -7.61135,7.61131 m 34.63065,-226.9637 -34.62478,34.62479 m 7.49518,-109.318529 -7.23742,7.237392 m 3.36844,268.160567 -3.28929,3.28929 M 479.31885,499.31651 472.63534,506 m 29.89461,-391.93333 -29.85877,29.85881 M 483.85425,8.2915926 473.1821,18.963767 m 32.81745,80.319638 -32.79262,32.792625 m 8.50342,-99.013108 -7.01727,7.017281 m 31.30647,421.241877 -30.6723,30.67229 M 486.64355,16.816001 475.7611,27.698474 M 477.83216,3 l -1.9307,1.9306993 m 1.35311,258.8621907 -1.30599,1.30599 m 25.80757,42.0747 -25.73205,25.73203 m 5.06005,28.88106 -2.6195,2.61949 m 27.5349,-276.436464 -27.4673,27.467254 m 23.1769,203.0973 -21.687,21.68698 m 1.9774,43.27747 -0.7161,0.71614 m 24.7161,-92.59839 -24.4054,24.40544 m 9.0277,-235.30196 -8.678,8.67803 m 6.1382,129.62633 -5.9442,5.94414 m 5.8844,5.42933 -5.7321,5.73218 m 4.5185,18.10883 -3.3195,3.31954 m 5.22,243.68159 -4.7601,4.7601 m 22.0505,-237.01097 -21.5,21.5 m 21.5,-270.401585 -20.7006,20.700602 m 14.9317,120.832793 -14.115,14.11499 m 19.8839,47.99837 -19.7566,19.75662 m 19.7566,-234.7170833 -18.24,18.2400283 m 18.24,445.622025 -17.4176,17.41757 m 17.4176,-119.24095 -15.4915,15.49147 m 15.4915,52.39078 -15.1527,15.15267 m 1.4624,-91.97202 -0.478,0.47794 M 500.45955,3 l -8.1169,8.116897 m 13.6569,223.931013 -13.5856,13.58558 m 9.0862,115.36466 -8.8814,8.88135 m 11.451,-34.07843 -8.8231,8.82312 M 505.99955,495.2632 495.26275,506 m 10.7368,-429.344012 -9.656,9.655987 m 9.656,114.794805 -9.2738,9.27381 m 9.2738,273.5689 -9.0024,9.00245 m 9.0024,-65.57099 -8.3095,8.30953 m 8.3095,-257.21112 -5.3729,5.37287 m 5.3729,198.27389 -5.1164,5.11639 m 5.1164,-333.213939 -4.7202,4.720223 m 4.7202,131.044276 -4.0173,4.01732 m 4.0173,109.11977 -2.7147,2.71472 m 2.7147,42.54011 -2.6184,2.61838 m 2.6184,53.95016 -2,2 m 2,-81.19596 -1.4349,1.43494 m 1.4349,-216.3954 -1.3349,1.33495"
     fill="none"
     stroke="#000000"
     id="path135"
     style="stroke-width:2;stroke-dasharray:none;stroke-linecap:round" /><path
     d="m 2.9995069,91.071376 0.6708,-3.222486 1.481,-6.10586 1.069,-3.85214 m 190.9064031,244.0393 -4.7154,0.11244 -6.2826,-0.0558 -6.2775,-0.26135 -6.2656,-0.4666 -6.2469,-0.67136 -6.2216,-0.87539 -6.1897,-1.07849 -6.151,-1.28043 -6.1059,-1.481 -6.0541,-1.67999 -5.9959,-1.87717 -5.9313,-2.07235 -5.8603,-2.2653 -5.7831,-2.45584 -5.6996,-2.64374 -5.6101,-2.82881 -5.514503,-3.01085 -5.413,-3.18967 -5.3058,-3.36507 -5.1928,-3.53687 -5.0743,-3.70488 -4.9504,-3.86892 -4.8211,-4.02882 -4.6868,-4.18441 -4.5473,-4.33552 -4.4031,-4.48197 -4.254,-4.62365 -4.1005,-4.76035 -3.9425,-4.89197 -3.7804,-5.01835 -3.6141,-5.13935 -3.444,-5.25485 -3.2703,-5.36472 -3.093,-5.46885 -2.9124,-5.56712 -2.7287,-5.65943 -2.542,-5.74568 -2.3527,-5.82578 -2.1609001,-5.89964 -1.9666,-5.96718 -1.7704,-6.02833 -1.5721,-6.08302 -1.3229,-5.91053 m 80.9494001,157.67814 -4.5742,-2.54372 -5.4032,-3.20639 -5.3112,-3.35666 -5.2149,-3.5043 -5.1147,-3.64919 -5.0102,-3.79119 -4.902,-3.93022 -4.7898,-4.06616 -4.6739,-4.19889 -4.5542,-4.32833 -4.4311,-4.45436 -4.3044,-4.57687 -4.1744,-4.6958 -4.041,-4.81103 -3.9045,-4.92247 -3.7649001,-5.03004 -3.6224,-5.13366 -3.1584,-4.75381 m 89.2720001,114.39569 -0.039,-0.0156 -5.7666,-2.49441 -5.7037,-2.63517 -5.6374,-2.77436 -5.5675,-2.91187 -5.4944,-3.04763 -5.4179,-3.18154 -5.3383,-3.31355 -5.2553,-3.44356 -5.1692,-3.5715 -5.08,-3.69728 -4.9878,-3.82083 -4.8925,-3.94209 -4.7942,-4.06097 -4.6932,-4.17741 -4.5892,-4.29132 -4.4825001,-4.40265 -4.3732,-4.51134 -1.9903,-2.1567 m 10.9689001,53.41043 -3.5846,-2.8217 -4.8511001,-3.99298 -2.533,-2.17954 m 22.3484001,55.61295 -3.4354,-2.0912 -5.3017,-3.3717 -5.2346,-3.47515 -5.1653001,-3.57725 -3.2114,-2.31865 m 0.038,-380.820678 0.2818,-0.4459225 L 6.4992069,3 m 0.5199,72.088894 1.6894,-5.395923 2.0723001,-5.931295 2.2653,-5.860315 2.4559,-5.783057 2.6437,-5.699609 2.8288,-5.610056 3.0109,-5.514497 3.1896,-5.413032 3.3651,-5.30577 3.5369,-5.192828 3.7048,-5.074324 3.869,-4.9503878 4.0288,-4.8211492 L 47.051507,3 m 11.9376,383.00951 -1.3678,-0.69566 -5.5369,-2.96985 -5.4707,-3.08994 -5.4021,-3.20854 -5.3307,-3.32562 -5.257,-3.44112 -5.1806,-3.55498 -5.1019,-3.66716 -5.0206,-3.77757 -0.6625,-0.52148 m 21.7552,-186.46963 -0.8347,-3.13656 -1.3761,-6.13022 -1.1344,-6.17952 -0.8909,-6.2193 -0.6461,-6.24947 -0.4002,-6.27003 -0.1537,-6.2809 0.093,-6.28209 0.3396,-6.2736 0.5855,-6.25543 0.8307,-6.22763 1.0746,-6.190204 1.3168,-6.143248 1.5569,-6.086816 1.7947,-6.020999 2.0297,-5.945898 2.2615,-5.861628 2.49,-5.768321 2.7145,-5.666119 2.9348,-5.55518 3.1507,-5.435676 3.3616,-5.307791 3.5675,-5.17172 3.7677,-5.027676 3.9622,-4.875879 4.1506,-4.716564 4.3326,-4.549977 4.5078,-4.376374 4.6762,-4.1960216 4.8373,-4.0092008 1.1931,-0.9122214 m -3.0162,249.7413638 -1.8371,-1.49288 -4.7166,-4.15059 -4.55,-4.33255 -4.3764,-4.50785 -4.196,-4.67619 -4.0092,-4.83732 -3.8162,-4.99099 -3.6173,-5.13697 -3.4128,-5.27501 -3.2032,-5.40495 -2.9884,-5.52652 -2.7692,-5.6396 -2.5456,-5.74396 -2.3182,-5.83947 -2.0871,-5.92599 -1.8404,-5.96307 m 26.1362,-34.962 -0.1569,-1.90938 -0.2064,-6.27916 0.102,-6.28173 0.41,-6.26916 0.7172,-6.24148 1.0225,-6.19878 1.3255,-6.141142 1.6252,-6.068703 1.9211,-5.981647 2.2122,-5.880181 2.4981,-5.76455 2.7779,-5.63503 3.0511,-5.491935 3.3169,-5.335611 3.5747,-5.166432 3.8239,-4.984806 4.0639,-4.791172 4.2941,-4.585995 4.513903,-4.369771 4.7229,-4.143019 3.7915,-3.009985 m -2.8327,200.311029 -4.104,-3.4811 -4.586,-4.29408 -4.369803,-4.51393 -4.143,-4.72291 -3.9063,-4.92051 -3.6602,-5.10626 -3.4051,-5.2797 -3.1421,-5.44042 -2.8712,-5.58804 -2.5937,-5.7222 -2.3097,-5.84257 -2.0203,-5.94887 -1.7259,-6.04083 -1.4275,-6.11824 -1.1255,-6.18091 -0.6689,-5.07537 m 71.419103,202.18362 -3.8481,-1.00339 -6.0329,-1.75515 -5.9812,-1.92366 -5.925,-2.09066 -5.864,-2.25601 -5.7984,-2.41958 -5.728203,-2.58125 -5.6536,-2.7409 -2.1624,-1.12426 M 288.92551,3.5478139 l 0.4962,0.3717908 4.8758,3.9622148 4.7166,4.1505865 4.55,4.332557 4.3764,4.507849 4.196,4.676189 4.0092,4.837319 3.8162,4.99099 3.6173,5.136965 3.4128,5.27502 3.2032,5.40494 2.9884,5.526528 2.7692,5.639593 2.5456,5.743962 2.3182,5.839474 2.0871,5.925984 1.8529,6.003354 1.6157,6.071469 1.3761,6.130222 1.1344,6.179519 0.8909,6.2193 0.6461,6.24947 0.4002,6.27003 0.1537,6.2809 -0.093,6.28209 -0.3396,6.2736 -0.5855,6.25543 -0.8307,6.22763 -1.0746,6.1902 -1.3168,6.14325 -1.5569,6.08682 -1.7947,6.021 -2.0297,5.94589 -2.2615,5.86163 -2.49,5.76832 -2.7145,5.66612 -2.9348,5.55518 -3.1507,5.43568 -3.3616,5.30779 -3.5675,5.17172 -3.7677,5.02768 -3.9622,4.87588 -4.1506,4.71656 -4.3326,4.54998 -4.5078,4.37637 -4.6762,4.19602 -4.8373,4.0092 -4.991,3.8162 -5.137,3.61731 -5.275,3.41285 -5.4049,3.20311 -5.5266,2.98845 -5.6396,2.76918 -5.7439,2.54563 -5.8395,2.31817 -5.926,2.08711 -6.0033,1.85286 -6.0715,1.61574 -6.1302,1.37613 -6.1795,1.13439 -6.2193,0.89091 -6.2495,0.64606 -6.27,0.40021 -6.2809,0.15374 -6.2821,-0.093 -6.2736,-0.33953 -6.2555,-0.58557 -6.2276,-0.8307 -6.1902,-1.07456 -6.1432,-1.31675 -6.0869,-1.55693 -6.021,-1.79469 -5.9459,-2.02969 -5.8616,-2.26156 -5.7683,-2.48994 -5.6661,-2.71449 -5.5552,-2.93485 -5.4357,-3.15067 -5.3078,-3.36166 -5.171703,-3.56744 -4.4534,-3.33739 m 1.9047,-124.56461 0.046,-5.88571 0.4599,-6.26521 0.8687,-6.22171 1.2737,-6.15158 1.6734,-6.0551 2.065703,-5.932699 2.4494,-5.784885 2.8225,-5.612302 3.1835,-5.415687 3.5309,-5.195881 3.8631,-4.953825 4.1789,-4.690556 4.4767,-4.407202 4.7554,-4.104975 1.139,-0.859905 m -2.2642,149.301427 -0.036,-0.0281 -4.6905,-4.17887 -4.4072,-4.47671 -4.105,-4.75537 -3.7852,-5.01366 -3.4491,-5.25049 -3.0984,-5.46483 -2.7343,-5.65578 -2.3586,-5.8225 -1.972703,-5.96429 -1.5784,-6.08054 -1.1773,-6.17076 -0.5913,-4.77971 m 144.702403,108.00169 -5.1511,2.03637 -5.9489,2.02027 -6.0408,1.72594 -6.1182,1.42745 -6.181,1.12552 -6.2287,0.82089 -6.2614,0.51427 -6.2792,0.20641 -6.2817,-0.10194 -6.2692,-0.41004 -6.2415,-0.71717 -6.1987,-1.02255 -6.1412,-1.32549 -6.0687,-1.62521 -5.9816,-1.92104 -5.8802,-2.21223 -5.7646,-2.49809 -5.635,-2.77794 -5.4919,-3.05109 -5.3356,-3.31689 -5.1665,-3.57469 -1.5379,-1.1798 m 5.6654,-208.566081 4.5483,-2.933464 5.4404,-3.142018 5.588,-2.871285 5.7222,-2.593633 5.8426,-2.3097343 5.9489,-2.0202709 6.0408,-1.7259403 6.1182,-1.4274519 2.558,-0.465797 m -40.088,118.2871054 0.02,-0.27968 1.0691,-6.189 1.6706,-6.0544 2.256,-5.8615 2.8197,-5.612147 3.3562,-5.308747 3.8603,-4.954222 4.3274,-4.551983 3.3106,-2.860085 m -14.1066,81.844784 -2.1837,-3.84805 -2.5494,-5.73994 -1.9746,-5.96219 -1.3807,-6.12703 -0.4322,-3.48297 m 96.2982,82.70091 -5.6686,1.8749 -6.0806,1.57839 -6.1707,1.17733 -6.2346,0.77123 -6.2716,0.36181 -6.2819,-0.0491 -6.2652,-0.4599 -6.2217,-0.86867 -6.1516,-1.27374 -6.0551,-1.67334 -5.9327,-2.06578 -5.7849,-2.44937 -5.6123,-2.82248 -5.4157,-3.1835 -3.7305,-2.53514 m 11.161,-32.12474 -2.4185,-2.29924 -4.106,-4.75271 -2.5512,-3.61674 m 0.076,-115.844648 2.8445,-1.86861 5.4649,-3.098374 5.6557,-2.734322 5.8225,-2.358562 5.9643,-1.972702 6.0806,-1.578396 6.1707,-1.177329 6.2346,-0.771222 5.8358,-0.33667 m 19.4243,157.730615 -5.6096,1.26406 -6.2328,0.77348 -6.2787,0.15882 -6.264,-0.45736 -6.1889,-1.06913 -6.0545,-1.67061 -5.8614,-2.25601 -5.6122,-2.81966 -1.039,-0.65687 m 1.6485,-111.018657 2.0766,-1.178437 5.7399,-2.54947 5.9622,-1.974582 6.1271,-1.380676 6.2328,-0.773474 1.6154,-0.04086 m -23.8322,80.798986 -1.3482,-2.08916 M 168.20591,4.1285679 171.14161,3.593997 175.64871,3 m 9.1885,95.796289 0.3583,-0.06534 m 9.3279,-64.606726 0.3437,0.0027 6.2652,0.459896 6.2217,0.868675 6.1516,1.273735 6.0551,1.673341 5.9327,2.06578 5.7849,2.449374 5.6123,2.82248 5.4157,3.183498 5.1958,3.530886 0.5517,0.43023 m -49.1972,13.654961 6.0947,1.052845 6.0545,1.670612 5.8614,2.256004 5.6122,2.819667 4.325,2.734256 M 206.25271,3 l 2.4506,0.2815754 6.1987,1.0225559 6.1412,1.3254838 6.0687,1.6252186 5.9816,1.9210381 5.8802,2.2122292 5.7646,2.498092 5.635,2.777936 5.4919,3.051087 5.3356,3.316889 5.1665,3.574699 0.6744,0.517374 m -38.4283,154.600392 -3.3577,2.36848 -4.6404,2.63333 m 0.7434,-66.44632 0.3833,0.969 1.1254,6.17132 -0.041,2.58676 m 22.9806,32.9334 -2.4783,3.9201 -3.8603,4.95423 -4.3274,4.55198 -3.3806,2.92049 m 43.5505,-3.37847 -0.027,0.0542 -3.1835,5.41568 -3.5309,5.19588 -3.8631,4.95383 -4.1789,4.69056 -4.4767,4.4072 -4.7554,4.10497 -5.0136,3.78517 -5.2505,3.44916 -5.4649,3.09837 -3.6649,1.77183 m 5.6794,-130.621859 3.82,4.421655 3.6202,5.132273 3.0999,5.462411 2.5494,5.73994 1.9746,5.96219 1.3807,6.12703 0.7735,6.23285 0.1588,6.27866 -0.4574,6.26398 -1.0691,6.189 -1.6334,5.91949 m 52.597,39.43113 -0.035,0.0713 -3.0511,5.49194 -3.3169,5.33561 -3.5747,5.16643 -3.8239,4.98481 -4.0639,4.79117 -4.2941,4.58599 -4.5139,4.36977 -4.7229,4.14302 -4.9205,3.90629 -5.1063,3.66014 -5.2797,3.40519 -5.4404,3.14201 -5.588,2.87129 -1.5955,0.72315 m 9.9752,-187.400229 2.1037,1.874232 4.4072,4.476707 4.105,4.755366 3.7852,5.013663 3.4491,5.25049 3.0984,5.464834 2.7343,5.655776 2.3586,5.822501 1.9727,5.96429 1.5784,6.08054 1.1773,6.17076 0.7712,6.23454 0.3618,6.27164 -0.049,6.28187 -0.4599,6.26521 -0.8687,6.22171 -1.2737,6.15158 -1.6734,6.0551 -2.0657,5.9327 -1.5905,3.75629 m -7.1693,-137.515432 4.3478,3.68785 4.586,4.294081 4.3698,4.513934 4.143,4.72291 3.9063,4.92051 3.6602,5.106256 3.4051,5.279699 3.1421,5.440424 2.8712,5.588043 2.5937,5.722198 2.3097,5.84257 2.0203,5.948865 1.7259,6.040829 1.4275,6.118243 1.1255,6.18091 0.8209,6.2287 0.5143,6.26147 0.2064,6.27916 -0.102,6.28173 -0.41,6.26916 -0.7172,6.24148 -1.0225,6.19878 -1.3255,6.14114 -1.6252,6.0687 -1.9211,5.98165 -2.2122,5.88018 -1.9533,4.50749 m 45.062,50.86485 -1.3332,2.10211 -3.5369,5.19283 -3.7048,5.07432 -3.869,4.95039 -4.0288,4.82115 -4.1844,4.68675 -4.3355,4.54733 -4.482,4.40304 -4.6236,4.25403 -4.7604,4.10048 -4.892,3.94253 -1.0162,0.76557 M 334.91411,3 l 3.5644,4.1379905 3.9425,4.8919695 3.7804,5.018347 3.6141,5.139349 3.444,5.254849 3.2703,5.364722 3.093,5.468849 2.9124,5.567121 2.7287,5.659431 2.542,5.745682 2.3527,5.825778 2.1609,5.899638 1.9666,5.967179 1.7704,6.028331 1.5721,6.083027 1.3723,6.13121 1.1709,6.172827 0.2689,1.723488 M 375.45161,3 l 0.3415,0.4839281 3.4769,5.233228 3.3288,5.3286849 3.1781,5.419949 1.6867,3.070851 m -6.807,77.927179 0.4836,3.10031 0.7647,6.2362 0.5602,6.25787 0.3553,6.27286 0.1497,6.28112 -0.01,0.87199 m 5.698,-104.768656 0.1413,0.257225 2.8691,5.589617 2.7113,5.667887 2.0827,4.687397 m -393.4630031,0.102957 0.2286,-0.498543 2.7896,-5.629699 2.9583,-5.542875 3.1245001,-5.450995 3.2876,-5.354141 3.4479,-5.252401 3.6049,-5.1458696 3.7587,-5.0346424 L 26.288107,3 m -11.5417,237.5 -0.889,-1.39616 -3.213,-5.39925 -3.0485001,-5.49384 -2.8811,-5.5834 -1.7153,-3.58582 m 3.7078,64.75826 -0.7008,-0.82546 -3.007,-3.73555 m 40.7223001,79.48699 -1.1812,-0.75 -5.2251,-3.48935 -5.1431,-3.6091 -5.0583,-3.72693 -4.9709,-3.84277 -4.8808,-3.95657 -4.7881,-4.06824 -4.6929001,-4.17776 -4.5951,-4.28504 -0.1868,-0.18246 m 37.9479001,67.79282 -3.2399,-1.84682 -5.3931,-3.22365 -5.3253,-3.33442 -5.2552,-3.44376 -5.1829,-3.55163 -5.1085,-3.658 -5.0317001,-3.76279 -3.4113,-2.66266 m 10.1445001,46.17006 -1.4434,-0.89177 -5.2824001,-3.40192 -3.4187,-2.29322 m 9.1765001,-118.41654 -2.103,-2.3494 -1.3947001,-1.64266 m 64.2398001,52.87942 -5.2542,-3.05398 -5.3476,-3.29848 -5.2593,-3.43733 -5.1676,-3.57382 -5.0723,-3.70788 -4.9734,-3.83937 -4.8713,-3.96826 -4.7657,-4.09441 -4.6569,-4.21775 -4.5449,-4.33822 -4.4298,-4.4557 -4.3116,-4.57013 -1.5361,-1.71606 m 25.5626,-19.46714 -1.8735,-2.01815 -4.1337,-4.73165 -3.9888,-4.85435 -3.8404,-4.9726 -3.6884,-5.08633 -3.5332,-5.19541 -0.2867,-0.45022 m 4.2553,-67.59708 -0.4836,-1.72066 -1.4829,-6.10533 -1.2641,-6.15437 -1.0436,-6.19557 -0.8219,-6.22887 -0.5989,-6.25424 -0.3754,-6.27162 -0.1513,-6.28103 0.073,-6.28243 0.2972,-6.27582 0.521,-6.26121 0.7441,-6.23863 0.9664,-6.208094 1.1873,-6.169646 1.2418,-5.405488 m 0.085,-0.369675 0.08,-0.348174 1.6245,-6.069224 1.84,-6.007379 2.0532,-5.937877 2.2639,-5.860807 2.4716,-5.77627 2.6763,-5.684372 2.8774,-5.585229 3.0749,-5.47897 2.0866,-3.42557 m -8.7999,168.463095 -1.0042,-2.06571 -2.5434,-5.74502 -2.3367,-5.83214 -2.1271,-5.91183 -1.9147,-5.98399 -0.013,-0.047 m 52.9044,82.0359 -3.4573,-3.06687 -4.5484,-4.33439 -4.3907,-4.49397 -4.2275,-4.64782 -4.059,-4.79574 -3.8852,-4.93757 -3.7064,-5.07309 -3.5231,-5.20215 -3.3351,-5.32458 -3.143,-5.44023 -2.9467,-5.54894 -0.467,-0.96057 m 19.714,77.12365 -3.685,-3.31061 -4.5449,-4.33815 -2.027,-2.05529 m 0.8837,-242.927003 1.8232,-2.765796 3.643,-5.118883 3.8234,-4.985595 3.9988,-4.845953 4.1693,-4.700137 2.3283,-2.4432201 m -0.5075,361.6958871 -4.5585,-2.46907 -5.4542,-3.11916 -5.3806,-3.24431 -2.9985,-1.90375 m 2.2154,-225.10143 -0.084,-5.00028 0.168,-6.28044 0.4418,-6.26713 0.7147,-6.2419 0.9864,-6.20478 1.256,-6.155845 1.5234,-6.095202 1.7878,-6.022951 2.0488,-5.939236 2.306,-5.844216 2.5586,-5.73807 2.8065,-5.621002 3.049,-5.493234 3.2858,-5.355009 2.1544,-3.190126 m -24.6049,92.941111 -0.2397,-3.95714 m 17.3897,61.153 -1.6899,-3.11662 -2.751,-5.6484 -2.5019,-5.76302 -2.2482,-5.86667 -1.9902,-5.95915 -1.7283,-6.04029 -1.4632,-6.10992 -1.1953,-6.16794 -0.8047,-5.40551 m 123.981403,188.23385 -4.6279,-0.45295 -6.2317,-0.80059 -6.2048,-0.98844 -6.172,-1.1754 -6.1337,-1.36127 -6.0898,-1.54591 -6.0403,-1.72913 -5.9853,-1.91078 -5.9249,-2.09068 -5.8591,-2.26868 -5.7879,-2.44461 -5.7113,-2.6183 -5.629703,-2.78961 -5.5429,-2.95837 -5.451,-3.12443 -5.3542,-3.28764 -5.2524,-3.44785 -5.1458,-3.60492 -5.0347,-3.7587 -4.9188,-3.90904 -4.2439,-3.58702 m 44.392,-46.29468 -1.3969,-1.13249 -4.7031,-4.1657 -4.5169,-4.36688 -4.3221,-4.55976 -4.1191,-4.74394 -3.9083,-4.9191 -3.69,-5.08489 -3.4647,-5.24101 -2.3767,-3.96072 m 8.1164,173.16462 -5.0902,-2.46006 -2.1891,-1.12111 M 68.348607,3.8378436 69.206107,3 m 5.3073,42.40493 2.6528,-3.580766 3.9566,-4.880322 4.1657,-4.703093 4.3669,-4.516912 4.5597,-4.322131 3.1,-2.691684 m 12.930203,265.699068 -2.6535,-1.36704 -5.479,-3.07492 -5.365703,-3.26852 -5.2457,-3.45795 -5.1189,-3.64297 -4.9855,-3.82336 -4.846,-3.99887 -0.388,-0.3442 m 28.048003,90.36229 -2.8193,-1.09169 -5.797703,-2.42132 -5.7323,-2.57227 -5.6631,-2.72144 -5.2779,-2.70864 m 0.2214,-206.95619 -0.1565,-3.77035 0.092,-6.28169 0.4439,-6.26665 0.7946,-6.23191 1.1428,-6.17755 1.4874,-6.10375 1.8273,-6.010748 2.1614,-5.898839 2.4888,-5.768368 2.8031,-5.609353 m 23.520803,135.764018 -2.8977,-2.66674 -4.3768,-4.50679 -4.1173,-4.74511 -3.8448,-4.96851 -3.560103,-5.17626 -3.2642,-5.36773 -2.9582,-5.54233 -2.6428,-5.69946 -2.319,-5.83869 -1.988,-5.95952 -1.6507,-6.06162 -1.3082,-6.14464 -0.9617,-6.20832 -0.088,-0.89462 m 13.0534,-67.029032 2.527,-4.418481 3.4199,-5.26998 3.710003,-5.069938 3.9884,-4.853942 4.2542,-4.622676 4.5068,-4.376863 4.7451,-4.11728 1.7583,-1.360582 m -24.164303,-21.578359 1.3898,-1.206755 2.896003,-2.300913 m 17.3831,237.904111 -0.8767,-0.48662 -5.355,-3.28573 -5.2066,-3.51619 -3.2442,-2.40344 m 2.0019,-231.763891 2.4055,-1.745591 5.241,-3.4646759 5.3871,-3.2327688 L 123.25551,3 m -8.7041,150.55399 -0.4394,-1.32485 -1.5034,-6.09902 -1.0202,-6.19817 -0.2174,-2.56353 m 0.1586,-16.60385 0.89,-5.84833 1.4294,-6.11678 1.9049,-5.98577 2.3686,-5.81787 2.8179,-5.614089 3.2496,-5.375698 3.6614,-5.104164 4.0505,-4.801162 3.2045,-3.243564 m 67.8162,232.762667 -4.5695,0.27349 -6.281,0.15128 -6.2824,-0.073 -6.2759,-0.29719 -6.2612,-0.52099 -6.2386,-0.74415 -6.2081,-0.96634 -6.1696,-1.1873 -6.1234,-1.40676 -6.0692,-1.62442 -6.0074,-1.84001 -5.9378,-2.05325 -5.8609,-2.26388 -5.7762,-2.47162 -4.8034,-2.26146 m 13.503,-109.589 -2.8327,-3.84957 -3.3145,-5.33594 -2.8856,-5.57955 -2.4389,-5.78875 -0.816,-2.46051 m 31.7511,111.44525 -0.027,-0.008 -5.9393,-2.04881 -5.8442,-2.30593 -5.738,-2.55865 -5.621,-2.80651 -0.1424,-0.079 m 48.9259,-16.85791 -5.1169,-0.94659 -6.1038,-1.48737 -6.0107,-1.82728 -5.8989,-2.16142 -5.7684,-2.48878 -5.6197,-2.8083 -5.4534,-3.11897 -5.27,-3.41985 -1.6158,-1.18235 m 1.961,-183.411125 2.3784,-1.635807 5.3677,-3.264271 5.5424,-2.958165 5.6994,-2.642751 5.8387,-2.319021 5.9595,-1.987996 6.0616,-1.650715 6.1447,-1.30824 6.2083,-0.96165 4.1152,-0.402821 m -43.353,171.164482 -0.6764,-0.57069 -4.4686,-4.41476 -1.1235,-1.29948 m 7.2628,-113.83487 2.1949,-1.89774 m 5.2047,45.60969 0.7417,-2.1064 2.8406,-5.59938 3.5472,-5.1807 2.3098,-2.574362 m 48.1659,111.143332 -2.8443,0.46815 -6.2591,0.53077 -6.2814,0.038 -6.2651,-0.45491 -6.2101,-0.94507 -6.1167,-1.42938 -5.9858,-1.9049 -5.8179,-2.36866 -5.6141,-2.81783 -3.6013,-2.17701 m 0.7195,-136.154848 2.0364,-1.264941 5.5796,-2.885617 5.7887,-2.438955 5.9623,-1.977256 6.099,-1.503368 6.1982,-1.020209 6.1162,-0.518651 m 1.254,223.855715 -4.4767,-0.11976 -6.2671,-0.44181 -6.2419,-0.71476 -6.2048,-0.98635 -6.1559,-1.25606 -5.9469,-1.48632 m 20.5124,-183.682928 5.3973,-1.764196 5.502,-1.02976 m -8.5808,93.038444 -2.091,-0.73631 m 57.0279,59.82146 -1.5537,0.61712 -5.9595,1.988 -6.0616,1.65071 -6.1447,1.30824 -6.2083,0.96165 -6.2525,0.61203 -6.2769,0.2605 -6.2817,-0.0919 -6.2667,-0.44395 -0.6635,-0.0846 m 71.1495,19.77224 -4.9915,2.16701 -5.8667,2.24819 -5.9591,1.99014 -6.0403,1.72832 -6.1099,1.4632 -6.1679,1.1953 -6.2143,0.92511 -6.2486,0.65318 -6.2712,0.37999 -4.8191,0.0814 m 1.4935,-255.908614 2.5318,0.03703 6.2667,0.443943 6.2319,0.794619 6.1775,1.142795 6.1038,1.487374 6.0107,1.827275 5.8989,2.161425 0.037,0.01602 m -34.9347,24.352855 2.3518,0.170769 6.2101,0.945063 6.1167,1.429385 5.9858,1.904897 5.8179,2.368663 5.6141,2.817825 5.3757,3.249616 2.2142,1.588354 m -23.1756,141.762376 -0.8995,0.29829 -6.099,1.50336 -2.6383,0.43427 m 5.484,-122.90708 3.4487,1.74953 m 37.512,95.33781 -0.8149,0.9659 -4.4148,4.46856 -4.7517,4.10841 -5.0595,3.72292 -5.3359,3.31449 -3.8668,1.99982 m 3.7551,-98.82947 2.4384,3.74041 2.7131,5.66229 1.9507,5.96797 1.1551,6.17154 0.037,0.67777 m 25.8987,164.91321 -5.2286,2.31478 -5.8321,2.33674 -5.9119,2.12709 -5.984,1.91472 -6.0485,1.69992 -4.2014,1.0205 m 6.4421,-273.006636 0.4076,0.175843 5.6197,2.808295 5.4534,3.118979 5.27,3.419849 1.8756,1.372437 m -17.7906,95.704283 -0.1487,1.93193 -0.4158,1.97353 m 19.5226,81.23009 -0.5904,0.4569 -5.1763,3.56011 -5.3677,3.26427 -5.5424,2.95817 -2.0635,0.95681 m 8.0739,-158.293221 2.4602,2.430563 4.1084,4.75175 3.7229,5.059443 3.3145,5.335945 2.8856,5.579547 2.4389,5.788753 1.9773,5.96226 1.5034,6.09902 1.0202,6.19817 0.5307,6.25911 0.038,6.28145 -0.4549,6.26508 -0.9451,6.21007 -1.4294,6.11678 -1.3587,4.26959 m -7.3182,15.77093 -1.6641,2.75291 -3.6614,5.10416 -0.5648,0.66951 m 65.3538,16.27784 -0.5129,1.02726 -3.049,5.49324 -3.2858,5.355 -3.5162,5.2066 -3.7399,5.04826 -3.9566,4.88032 -4.1657,4.70309 -4.3669,4.51691 -4.5597,4.32213 -4.744,4.11913 -4.9191,3.90827 -5.0849,3.68999 -5.241,3.46468 -5.3871,3.23277 -5.5231,2.9947 -0.7311,0.35608 M 258.73071,3 l 4.8588,2.6968419 5.355,3.2857319 5.2066,3.5161872 2.4477,1.813404 m 12.766,169.210885 -2.7647,4.83399 -3.4199,5.26998 -3.71,5.06994 -3.9884,4.85394 -4.2542,4.62268 -4.5068,4.37686 -4.7451,4.11728 -2.7998,2.16655 m 4.4158,-174.021229 0.8867,0.728609 4.6227,4.254285 4.3768,4.506787 4.1173,4.74511 3.8448,4.968503 3.5601,5.176263 3.2642,5.367737 2.9582,5.542321 2.6428,5.699468 2.319,5.838682 1.988,5.959525 1.4402,5.288569 m 35.1802,128.56585 -2.2675,3.1862 -3.8234,4.9856 -3.9988,4.84595 -4.1693,4.70014 -4.3344,4.54833 -4.494,4.39073 -4.6478,4.22753 -4.7957,4.05894 -4.9376,3.88519 -5.0731,3.70648 -5.2021,3.52304 -5.3246,3.33513 -5.4403,3.14295 -5.5489,2.94678 -1.6785,0.81596 m 12.3614,-269.716225 2.6616,2.157825 4.7031,4.165702 4.5169,4.366883 4.3221,4.559751 4.1191,4.743941 3.9083,4.919099 3.69,5.084893 3.4647,5.241009 3.2327,5.387148 2.9947,5.523032 2.751,5.648402 2.5019,5.763021 2.2482,5.866669 1.9902,5.95915 1.7283,6.040288 1.4632,6.109926 1.1953,6.167936 0.9251,6.2142 0.6532,6.24864 0.38,6.27119 0.106,6.28179 -0.168,6.28044 -0.4418,6.26713 -0.7147,6.2419 -0.9864,6.20478 -0.6628,3.24831 m -30.8713,-8.9393 -0.6365,3.44092 -1.4874,6.10375 -1.8273,6.01075 -2.1614,5.89884 -2.0004,4.63648 m 7.8138,-67.7625 0.3017,1.41712 0.9617,6.20832 0.612,6.25248 0.2605,6.27696 -0.092,6.28169 -0.4439,6.26665 -0.6766,5.30613 M 312.73421,3 l 1.9143,1.8242118 4.3907,4.4939662 4.2275,4.647818 4.059,4.795747 3.8852,4.937565 3.7064,5.07309 0.3539,0.522447 m -11.257,155.821955 -0.2734,0.69287 -2.2049,4.94488 m 9.6476,-27.95323 -1.3001,5.20195 -1.7878,6.02295 -1.7652,5.11694 m 20.3966,32.81837 -0.7575,1.4702 -3.0749,5.47896 -3.2685,5.36573 -2.7842,4.22358 m 1.4124,-194.800162 0.1861,0.27471 3.3351,5.324581 3.143,5.440227 2.9467,5.54894 2.7469,5.650582 2.5434,5.745023 2.3367,5.832142 2.1271,5.91183 1.3614,4.254593 m 1.6065,5.476767 0.6468,2.301135 1.4829,6.105332 1.2641,6.154372 1.0436,6.195568 0.8219,6.22887 0.5989,6.25424 0.3754,6.27162 0.1513,6.28103 -0.073,6.28243 -0.2972,6.27582 -0.521,6.26121 -0.7441,6.23863 -0.9664,6.20809 -1.1873,6.16965 -1.4067,6.12334 -1.6245,6.06922 -1.84,6.00738 -2.0532,5.93788 -2.2639,5.8608 -2.4716,5.77627 -2.0545,4.36375 M 355.63561,3 l 1.8618,2.4106709 3.6884,5.0863261 3.5332,5.195409 3.3746,5.29975 3.213,5.399256 3.0485,5.493835 2.8811,5.583403 2.7112,5.667874 2.5388,5.747175 2.3641,5.821232 2.1871,5.889978 1.5192,4.503736 m 2.2376,7.201297 0.079,0.259603 1.6451,6.063742 0.5151,2.154185 M 394.58281,3 l 3.0074,4.9399746 3.1256,5.4503854 2.9819,5.530337 1.9219,3.799312 m -402.6201031,0.971607 1.1828,-2.106999 3.2337,-5.386942 3.3889001,-5.290613 3.5414,-5.189808 L 16.318707,3 m -13.3192001,58.818657 1.1782,-3.23093 2.3368,-5.8322 2.5188,-5.755922 2.4323001,-5.114546 m -4.8933001,165.542171 -0.6845,-1.59961 -2.2889,-5.85114 -0.5994,-1.6864 m 4.2708,73.43911 -3.4845,-4.62634 -0.7863,-1.10507 m 7.1989001,33.8033 -3.1745001,-3.42265 -4.0244,-4.56571 m 12.0000001,56.00906 -1.1378,-0.90812 -4.8214001,-4.02869 -4.7299,-4.13586 -1.3109,-1.19926 M 23.351107,374 l -0.8676,-0.58719 -5.1276,-3.63113 -5.0493,-3.73916 -4.9688001,-3.84548 -4.3383,-3.50719 m 18.0000001,32.97548 -1.669,-1.07561 -5.2118,-3.50925 -5.1400001,-3.61349 -5.0662,-3.71627 -0.913,-0.69845 m 14.7994001,29.54838 -4.9813,-3.15516 -5.2425001,-3.46312 -4.5756,-3.1501 m 2.7218,21.06849 -2.7218,-1.77048 m 4,-174.91339 -0.1457,-0.23002 L 4.4874069,239 m 2.8205,-98.34836 -0.1674,-2.81307 -0.1588,-6.28087 0.056,-6.28264 0.2489,-5.7812 m 2.7129,202.76114 -2.339,-2.255 m 0.01,-205.64246 0.1255,-1.62373 0.698,-6.244 0.9106,-6.21652 1.1224001,-6.181818 1.3328,-6.139889 1.5417,-6.090806 1.7487,-6.034623 1.9537,-5.971402 2.1564,-5.901219 0.5972,-1.475965 m -5.93,117.598582 -1.3528,-4.99819 -1.4334,-6.1172 -1.2236001,-6.16256 -1.0126,-6.20075 -0.8003,-6.2317 -0.2838,-3.02381 m 2.1785,127.83498 -1.734,-2.17692 m 5.7700001,-236.150468 0.5715,-1.110296 3.0493,-5.493333 2.7363,-4.583841 M 14.783407,183 l -0.3076,-1 m 8.6093,-127.179601 1.0819,-2.431325 2.7486,-5.649755 2.9399,-5.552622 1.4076,-2.452376 m -6.3309,-20.147597 2.8855,-4.208672 3.7138,-5.0678342 3.8711,-4.9486802 L 36.538407,3 m -10.8,157.26111 -0.7819,-4.48962 -0.8457,-6.22564 -0.6124,-6.2529 -0.3781,-6.27143 -0.1434,-6.28118 0.092,-6.28216 0.3264,-6.27433 0.5608,-6.25774 0.7944,-6.2324 1.0269,-6.198329 1.2579,-6.155604 1.4872,-6.104263 1.7145,-6.044386 1.9392,-5.976056 2.1613,-5.899366 2.3804,-5.814427 2.5961,-5.721356 2.8083,-5.620282 3.0164,-5.511348 3.2204,-5.394706 3.4199,-5.270519 3.6145,-5.138961 3.8042,-5.000215 3.9884,-4.854476 4.1672,-4.701948 4.3401,-4.542844 4.5069,-4.3773852 4.6675,-4.2058054 L 81.060607,3 m -49.8789,395.0089 -1.2211,-0.71903 -2.5433,-1.5675 m 7.5822,-14.12282 L 34.027107,381 m 0.3972,-347.585443 1.8709,-3.015924 3.4923,-5.222865 3.6686,-5.100588 3.8406,-4.972365 4.0081,-4.838344 4.171,-4.6986823 L 57.915007,3 m -18.6287,136.28678 -0.1486,-2.21842 -0.1604,-6.28069 0.099,-6.28196 0.3588,-6.27248 0.6177,-6.2523 0.1176,-0.8359 m 1.0712,-7.09619 0.8186,-4.469277 1.3863,-6.127881 1.6384,-6.065356 1.0299,-3.269516 m 1.9477,-5.74181 1.0437,-2.890489 2.376,-5.816124 2.6143,-5.712967 2.8482,-5.600048 1.4425,-2.567615 M 55.029307,127 l 0.2006,-5.26609 0.5288,-6.26033 0.1365,-1.04025 m 1.1197,-7.64713 0.6654,-3.72668 1.3886,-6.127238 1.6702,-6.056568 1.948,-5.972971 2.2219,-5.87663 2.1205,-4.910206 m -4.4371,-25.400474 0.7307,-1.183343 3.5191,-5.204742 3.731,-5.054873 3.9368,-4.896367 0.7665,-0.876478 m -4.759,35.447822 2.6494,-4.848952 3.2639,-5.368304 3.5082,-5.211841 3.7453,-5.044254 3.9742,-4.865904 4.1947,-4.677169 4.4062,-4.478452 4.608403,-4.270179 4.8006,-4.052792 0.2712,-0.20824 m -34.641503,97.780025 0.3792,-4.61243 0.8417,-6.22583 1.1664,-6.17324 1.4879,-6.103737 1.4993,-4.997459 m -1.1522,-62.367964 3.1254,-3.574118 4.3277,-4.554546 4.5122,-4.371813 4.689,-4.181611 4.1619,-3.413467 m -15.4272,71.194315 0.6113,-1.461447 2.7244,-5.661007 3.017,-5.510665 3.3012,-5.345217 3.5764,-5.16512 3.8419,-4.970864 3.217903,-3.741208 m -10.538803,52.197188 0.1194,-0.48563 0.2194,-0.70555 m 0.2121,-0.68212 0.8483,-2.727435 m 0.506,-1.626777 0.08,-0.256912 0.3537,-0.934265 m 0.5803,-1.532601 1.2905,-3.408339 2.5751,-5.730175 2.916503,-5.564235 3.2471,-5.377993 3.5659,-5.172126 3.8716,-4.947388 3.6917,-4.171628 m -11.0439,-11.586845 2.7245,-2.850996 4.5721,-4.308665 4.7915,-4.063471 0.3978,-0.303117 M 106.05071,4.0128066 107.22111,3.2047622 107.54561,3 m 5.3062,15.768948 2.9535,-2.058656 5.3145,-3.350687 5.4636,-3.101668 5.601,-2.8460306 5.7265,-2.5843186 L 142.51701,3 m -21.0738,49.76964 2.9064,-2.577732 0.8231,-0.645538 m -2.0165,-18.44656 2.8136,-1.919323 5.3681,-3.263902 5.5315,-2.978484 5.6799,-2.684904 5.8125,-2.383964 5.9294,-2.07649 6.03,-1.763324 6.1139,-1.445325 6.1812,-1.123364 6.2316,-0.798326 6.2647,-0.471097 0.8071,-0.01832 m -54.4351,55.069549 0.6862,-0.66213 0.7676,-0.641499 m 1.8367,-21.385732 5.0603,-3.062862 5.5611,-2.922542 5.7273,-2.581443 5.8728,-2.230924 5.9968,-1.872265 6.0988,-1.506775 6.1787,-1.135785 6.236,-0.760653 5.0042,-0.305443 m -41.4505,28.866277 2.3702,-1.464054 5.5663,-2.911604 5.7599,-2.507086 5.9241,-2.089794 6.058,-1.661852 6.1612,-1.225441 6.2329,-0.782788 3.0666,-0.16433 m 7.9149,-32.104338 3.5585,0.105587 6.2613,0.51473 0.8372,0.113186 m -9.3491,15.312457 4.9081,0.29419 5.6566,0.683692 m -8.2535,15.204099 4.2099,0.376794 6.201,1.004929 5.5555,1.312889 m -4.9487,-33.650994 1.4089,0.190476 6.1732,1.166399 6.1037,1.487883 1.1733,0.351993 m -10.1983,13.918159 5.4357,1.336625 5.9988,1.865699 5.8752,2.224494 5.7302,2.575171 5.3837,2.82185 m -21.0625,7.926064 5.3252,2.095288 5.6666,2.711231 3.7687,2.146156 m -6.1962,-37.851328 5.0319,1.801633 5.6261,2.353376 M 239.40141,3 l 2.596,0.9814816 2.5879,1.117612 m 3.112,19.2427524 3.6398,1.992733 5.3452,3.301219 1.9814,1.371956 m -10.119,12.466801 2.416,1.665706 m 0.9949,21.469584 0.1256,0.112867 4.3619,4.520577 3.5573,4.256711 m -7.948,-66.9361635 1.3593,0.6631284 0.7417,0.4052637 m 2.8944,1.5815104 1.8772,1.025664 5.3683,3.263848 5.2118,3.508292 1.7817,1.322869 m -10.8417,32.378562 1.7734,1.56936 4.4446,4.439775 4.1685,4.700036 3.8771,4.943146 3.5715,5.16822 3.253,5.374435 2.9225,5.561039 2.5815,5.727352 2.2309,5.872767 1.8723,5.996756 0.3527,1.42774 m -18.3507,-60.851004 2.981,2.848671 4.3086,4.572177 4.0635,4.791409 3.8071,4.997508 3.5404,5.18991 3.2639,5.368086 2.9785,5.531548 2.6849,5.67985 2.384,5.812582 0.4166,1.189771 M 274.38531,3 l 2.0402,1.3794188 m 1.0418,20.7605822 1.948,1.591005 4.6772,4.194698 4.4784,4.40623 0.115,0.124122 m -2.4607,-23.821015 2.4222,1.947507 4.7295,4.135778 4.5545,4.327691 4.3718,4.512211 4.1817,4.689022 1.5274,1.862376 m -16.268,71.400764 0.368,1.48961 m 2.2967,-64.202436 2.4849,2.943381 3.8268,4.982703 3.5925,5.154119 3.3507,5.314536 3.1017,5.463611 2.846,5.601028 2.5843,5.72649 1.7146,4.321252 M 300.87101,3 l 3.865,3.4254237 4.532,4.3297253 m -4.2486,82.005066 0.2114,0.603506 1.7633,6.029932 0.3567,1.508917 m 0.056,0.23866 1.0322,4.36638 1.1234,6.18121 0.7983,6.23154 0.4711,6.26478 0.132,5.81486 m -1.3985,-94.996371 0.9034,1.101442 3.7801,5.018321 3.5695,5.170247 3.3528,5.31334 3.1304,5.447355 2.9026,5.572064 2.6698,5.687252 2.4325,5.792724 2.191,5.8883 1.9459,5.973815 1.6973,6.049124 1.1731,4.960646 m -29.0359,-85.183836 3.3781,3.47801 4.2058,4.667442 4.0283,4.821438 3.8453,4.968692 3.6567,5.108995 3.4632,5.242153 0.175,0.287761 m -12.6006,48.023256 0.1279,0.371508 1.7684,6.028616 1.4881,6.103856 1.2046,6.16606 0.9185,6.21512 0.2791,2.76645 M 324.06151,3 l 0.3528,0.3591094 4.2476,4.6296071 4.0869,4.7719225 2.4299,3.041461 m -8.4543,122.47296 v 0.087 l -0.3613,4.27762 m 0.5887,-12.00477 0.012,1.44907 -0.1111,2.91599 m 7.7247,-92.093523 1.5465,2.542656 3.0617,5.4863 2.8545,5.596945 2.6432,5.699764 2.4282,5.79461 2.2099,5.881353 1.9884,5.959869 1.7642,6.030051 1.5374,6.091799 1.3087,6.145026 1.0779,6.18966 0.8457,6.22564 0.6124,6.2529 0.3781,6.27143 0.1434,6.28118 -0.092,6.28216 -0.3264,6.27433 -0.5608,6.25774 -0.2065,1.61944 m -18.9089,-129.152175 1.5424,2.071862 3.5775,5.164855 3.3992,5.283986 0.2562,0.429869 m -7.7502,66.190271 0.8739,4.522342 0.9361,6.21261 0.6785,6.246 0.4198,6.26869 0.014,0.55229 m -0.291,17.92007 -0.021,0.36277 -0.5075,5.13723 m 0.932,-15.56591 -0.022,1.37882 M 345.40681,3 l 2.1654,2.6394955 3.8305,4.9802095 3.6722,5.09807 3.5102,5.2109 3.3448,5.318589 3.1761,5.421026 3.0043,5.518116 2.8294,5.609759 1.2518,2.688751 m -20.7959,-5.513828 2.2507,4.087358 2.841,5.603893 0.4161,0.895339 m 2.1467,4.619068 0.085,0.183211 2.4519,5.784702 2.253,5.86504 2.0514,5.938539 1.8475,6.005115 1.6414,6.06469 1.4334,6.117192 1.2236,6.162563 0.2973,1.82021 M 365.63681,3 l 2.5821,3.5944868 3.5156,5.2073022 0.9279,1.464355 m 0.3616,34.006863 0.5676,1.219024 2.4716,5.776352 2.2889,5.851137 2.1041,5.920148 1.917,5.983317 1.7282,6.040581 1.5376,6.091882 1.3455,6.137173 1.152,6.176407 0.1696,1.099877 m -15.05,7.534755 0.5942,4.62659 0.587,6.25539 0.3732,6.27179 0.1588,6.28087 -0.056,6.28264 -0.2702,6.27707 -0.4843,6.26418 -0.698,6.244 -0.058,0.39381 m 0.7327,-138.407626 0.961,1.516765 3.2069,5.402908 2.2375,4.032346 m 3.6222,6.894676 0.076,0.147103 2.7238,5.661848 2.558,5.738674 0.482,1.171947 M 385.09011,3 l 0.2205,0.328395 3.3603,5.3089455 3.2152,5.3979915 3.0679,5.483078 2.9182,5.564144 2.7666,5.641128 1.1875,2.597051 M 403.94541,3 l 0.6983,1.1515486 3.1207,5.4531978 0.7241,1.3431216"
     fill="none"
     stroke="#000000"
     id="path1588"
     style="stroke:#0200b6;stroke-opacity:1;stroke-width:2;stroke-dasharray:none;stroke-linecap:round" /></svg>
